<svg id="Capa_1" enable-background="new 0 0 519.989 519.989" height="512" viewBox="0 0 519.989 519.989" width="512" xmlns="http://www.w3.org/2000/svg"><g><g><path d="m519.989 159.351c0-55.495-45.148-100.643-100.643-100.643s-100.643 45.148-100.643 100.643c0 11.758 2.034 23.049 5.757 33.548h-74.294c-3.463-9.761-12.785-16.774-23.718-16.774h-109.03v-16.774h8.387c9.249 0 16.774-7.525 16.774-16.774v-16.774c0-9.249-7.525-16.774-16.774-16.774h-33.549c-9.249 0-16.774 7.525-16.774 16.774v16.774c0 9.249 7.525 16.774 16.774 16.774h8.387v18.216c-7.136 2.531-12.799 8.195-15.331 15.331h-68.538v16.774h67.095v16.774h-83.869v16.774h83.869v16.774h-67.095v16.774h67.095v16.774h-83.869v16.774h83.869v16.774h-67.095v16.774h67.095v16.774h-83.869v16.774h83.869v41.935h-16.774v-8.387c0-9.249-7.525-16.774-16.774-16.774h-16.773c-9.249 0-16.774 7.525-16.774 16.774v33.548c0 9.249 7.525 16.774 16.774 16.774h16.774c9.249 0 16.774-7.525 16.774-16.774v-8.387h16.774c0 13.873 11.288 25.161 25.161 25.161h83.869c13.873 0 25.161-11.288 25.161-25.161v-8.387c0-4.624 3.763-8.387 8.387-8.387s8.387 3.763 8.387 8.387v33.548h195.935l55.672-46.393v-180.59c20.576-18.443 33.547-45.208 33.547-74.948zm-427.733-16.773v-16.774h33.548v16.774l-33.548.01s0-.003 0-.01zm-41.935 301.928h-16.773v-33.548h16.774l.01 33.548s-.003 0-.011 0zm369.025-369.024c46.245 0 83.869 37.624 83.869 83.869s-37.624 83.869-83.869 83.869-83.869-37.624-83.869-83.869 37.623-83.869 83.869-83.869zm0 184.512c5.715 0 11.317-.486 16.774-1.406v131.403l-16.774 12.58v-100.642c0-13.874-11.287-25.161-25.161-25.161s-25.161 11.287-25.161 25.161v109.03h-16.774v-109.03c0-13.874-11.287-25.161-25.161-25.161s-25.161 11.287-25.161 25.161v109.03h-16.774v-41.935h-67.094v-83.869h8.387c13.873 0 25.161-11.288 25.161-25.161v-50.321h80.606c17.426 30.059 49.956 50.321 87.132 50.321zm-16.774 150.965h-16.774v-109.03c0-4.624 3.763-8.387 8.387-8.387s8.387 3.763 8.387 8.387zm-67.095 0h-16.774v-109.03c0-4.624 3.763-8.387 8.387-8.387s8.387 3.763 8.387 8.387zm-234.834 25.16v-234.833c0-4.624 3.763-8.387 8.387-8.387h8.387v251.607h-8.387c-4.624 0-8.387-3.762-8.387-8.387zm92.256 8.387h-58.708v-251.607h92.256c4.624 0 8.387 3.763 8.387 8.387v58.708c0 4.624-3.763 8.387-8.387 8.387h-25.161v58.708 100.643 8.387c0 4.625-3.763 8.387-8.387 8.387zm276.768-37.475-44.971 37.476h-173.089v-16.774c0-13.874-11.288-25.161-25.161-25.161-2.941 0-5.762.512-8.387 1.443v-18.216h50.321v41.935h145.373l39.139-29.354v-144.142c5.857-2.077 11.469-4.678 16.774-7.754v160.547z"/><path d="m363.094 178.581 11.861 11.862 22.703-22.705h13.301v13.301l-22.705 22.703 11.862 11.861 10.843-10.844v21.688h16.774v-21.688l10.843 10.844 11.861-11.861-22.704-22.703v-13.301h13.3l22.704 22.705 11.861-11.862-10.845-10.843h21.688v-16.774h-21.688l10.845-10.843-11.861-11.861-22.704 22.704h-13.3v-13.3l22.704-22.704-11.861-11.861-10.843 10.845v-21.688h-16.774v21.688l-10.843-10.845-11.862 11.861 22.705 22.704v13.3h-13.301l-22.703-22.704-11.861 11.861 10.844 10.843h-21.688v16.774h21.688z"/><path d="m184.512 303.371v-60.151h-16.774v60.151c-9.761 3.462-16.774 12.785-16.774 23.718s7.012 20.257 16.774 23.718v76.925h16.774v-76.925c9.761-3.462 16.774-12.785 16.774-23.718s-7.013-20.256-16.774-23.718zm-8.387 32.106c-4.624 0-8.387-3.763-8.387-8.387s3.763-8.387 8.387-8.387 8.387 3.763 8.387 8.387-3.763 8.387-8.387 8.387z"/></g></g></svg>