<svg id="outline" height="512" viewBox="0 0 64 64" width="512" xmlns="http://www.w3.org/2000/svg"><path d="m6 49v-34a9.011 9.011 0 0 1 9-9h34a9.011 9.011 0 0 1 9 9v23a1 1 0 0 1 -2 0v-23a7.008 7.008 0 0 0 -7-7h-34a7.008 7.008 0 0 0 -7 7v34a7.008 7.008 0 0 0 7 7h23a1 1 0 0 1 0 2h-23a9.011 9.011 0 0 1 -9-9zm16-17a4 4 0 1 1 -4-4 4 4 0 0 1 4 4zm-2 0a2 2 0 1 0 -2 2 2 2 0 0 0 2-2zm30 0a1 1 0 0 0 -1-1h-22a1 1 0 0 0 0 2h22a1 1 0 0 0 1-1zm-28-14a4 4 0 1 1 -4-4 4 4 0 0 1 4 4zm-2 0a2 2 0 1 0 -2 2 2 2 0 0 0 2-2zm29-1h-22a1 1 0 0 0 0 2h22a1 1 0 0 0 0-2zm-27 29a4 4 0 1 1 -4-4 4 4 0 0 1 4 4zm-2 0a2 2 0 1 0 -2 2 2 2 0 0 0 2-2zm7-1a1 1 0 0 0 0 2h9a1 1 0 0 0 0-2zm33 5a10 10 0 1 1 -10-10 10.011 10.011 0 0 1 10 10zm-2 0a8 8 0 1 0 -8 8 8.009 8.009 0 0 0 8-8zm-8-5a1 1 0 0 0 -1 1v5a1 1 0 0 0 2 0v-5a1 1 0 0 0 -1-1zm0 8a1 1 0 1 0 1 1 1 1 0 0 0 -1-1z"/></svg>